<svg height="512" viewBox="0 0 512 512" width="512" xmlns="http://www.w3.org/2000/svg"><g id="filled_outline" data-name="filled outline"><circle cx="256" cy="192" fill="#fee4a7" r="168"/><path d="m382.623 81.594c-46.529 107.627-152.195 183.706-276.046 187.264a168.014 168.014 0 1 0 276.046-187.264z" fill="#efd092"/><circle cx="256" cy="192" fill="#ffc933" r="136"/><rect fill="#95d7fe" height="336" rx="32" width="208" x="152" y="152"/><path d="m360 184h-208a32 32 0 0 1 32-32h144a32 32 0 0 1 32 32z" fill="#e6e6e6"/><path d="m152 403.158v52.842a32 32 0 0 0 32 32h144a32 32 0 0 0 32-32v-160.457a273.224 273.224 0 0 1 -208 107.615z" fill="#78cef9"/><path d="m464 176v8l-7.088 127.581a15.556 15.556 0 1 0 31.088.863v-136.444z" fill="#ff8706"/><path d="m48 112-7.408 200.011a15.419 15.419 0 0 0 15.408 15.989 15.419 15.419 0 0 0 15.408-15.989l-7.408-200.011z" fill="#ff8706"/><path d="m488 24v160h-24l-4.084-6.807a116.786 116.786 0 0 1 -16.064-71.71 116.789 116.789 0 0 1 33.627-70.962z" fill="#d7dadc"/><path d="m24 24v64a32 32 0 0 0 32 32 32 32 0 0 0 32-32v-64l-20 56-12-56-12 56z" fill="#d7dadc"/><path d="m360 456h-208a32 32 0 0 0 32 32h144a32 32 0 0 0 32-32z" fill="#e6e6e6"/><circle cx="256" cy="472" fill="#b3b3b3" r="16"/><rect fill="#5eae35" height="48" rx="24" width="112" x="200" y="360"/><path d="m294.969 361.031a24.008 24.008 0 0 1 1.031 6.969 24 24 0 0 1 -24 24h-64a24.008 24.008 0 0 1 -6.969-1.031 24.009 24.009 0 0 0 22.969 17.031h64a24 24 0 0 0 24-24 24.009 24.009 0 0 0 -17.031-22.969z" fill="#599b32"/><circle cx="256" cy="168" r="8"/><path d="m256 16c-97.047 0-176 78.953-176 176a175.062 175.062 0 0 0 64 135.755v128.245a40.045 40.045 0 0 0 40 40h144a40.045 40.045 0 0 0 40-40v-128.246a175.055 175.055 0 0 0 64-135.754c0-97.047-78.953-176-176-176zm-96 432v-256h192v256zm104 24a8 8 0 1 1 -8-8 8.009 8.009 0 0 1 8 8zm-102.624-296a24.039 24.039 0 0 1 22.624-16h144a24.039 24.039 0 0 1 22.624 16zm166.624-32h-144a40.045 40.045 0 0 0 -40 40v69.972a128 128 0 1 1 224-.006v-69.966a40.045 40.045 0 0 0 -40-40zm-166.624 320h72a23.944 23.944 0 0 0 0 16h-49.376a24.039 24.039 0 0 1 -22.624-16zm166.624 16h-49.376a23.944 23.944 0 0 0 0-16h72a24.039 24.039 0 0 1 -22.624 16zm40-173.731v-23.756a144.123 144.123 0 0 0 32-90.513c0-79.4-64.6-144-144-144s-144 64.6-144 144a144.1 144.1 0 0 0 32 90.516v23.753a159.041 159.041 0 0 1 -48-114.269c0-88.225 71.775-160 160-160s160 71.775 160 160a159.035 159.035 0 0 1 -48 114.269z"/><path d="m72.466 124.439a40.047 40.047 0 0 0 23.534-36.439v-64a8 8 0 0 0 -15.534-2.69l-10.538 29.506-6.106-28.492a8 8 0 0 0 -15.644 0l-6.106 28.492-10.538-29.506a8 8 0 0 0 -15.534 2.69v64a40.046 40.046 0 0 0 23.535 36.439l-6.935 187.276a23.418 23.418 0 1 0 46.8 0zm-40.466-36.439v-17.814l4.466 12.5a8 8 0 0 0 15.356-1.014l4.178-19.491 4.178 19.5a8 8 0 0 0 15.356 1.009l4.466-12.504v17.814a24 24 0 0 1 -48 0zm29.342 229.729a7.419 7.419 0 0 1 -12.756-5.422l6.828-184.322c.2 0 .389.015.586.015s.391-.012.587-.015l6.827 184.322a7.358 7.358 0 0 1 -2.072 5.422z"/><path d="m491.062 16.609a8 8 0 0 0 -8.719 1.734l-10.521 10.52a124.794 124.794 0 0 0 -18.766 152.445l2.82 4.7-6.951 125.128a23.556 23.556 0 1 0 47.075 1.308v-288.444a8 8 0 0 0 -4.938-7.391zm-39.25 89.67a109.113 109.113 0 0 1 28.188-62.831v132.552h-11.47l-1.755-2.924a109.5 109.5 0 0 1 -14.963-66.797zm20.632 213.721a7.557 7.557 0 0 1 -7.545-7.976l6.668-120.024h8.433v120.444a7.565 7.565 0 0 1 -7.556 7.556z"/><path d="m192 224h16v-16h-24a8 8 0 0 0 -8 8v24h16z"/><path d="m328 208h-24v16h16v16h16v-24a8 8 0 0 0 -8-8z"/><path d="m208 304h-16v-16h-16v24a8 8 0 0 0 8 8h24z"/><path d="m320 304h-16v16h24a8 8 0 0 0 8-8v-24h-16z"/><path d="m200 240h16v48h-16z"/><path d="m224 240h16v40h-16z"/><path d="m248 240h16v40h-16z"/><path d="m272 240h16v40h-16z"/><path d="m296 240h16v48h-16z"/><path d="m288 352h-64a32 32 0 0 0 0 64h64a32 32 0 0 0 0-64zm0 48h-64a16 16 0 0 1 0-32h64a16 16 0 0 1 0 32z"/></g></svg>